<svg width="135" height="132" viewBox="0 0 135 132" fill="none" xmlns="http://www.w3.org/2000/svg">
<path d="M112.696 68.2363V68.3054C107.148 71.4688 100.811 73.1325 94.3578 73.1204C87.9046 73.1082 81.5749 71.4206 76.0393 68.2363H112.696Z" fill="#DE0D6B"/>
<path d="M58.6758 38.7987C58.6658 33.2689 60.0548 27.8196 62.7233 22.919L76.3267 23.0732L84.0681 23.1644H84.1315C79.446 28.8777 77.9058 33.3799 76.5125 40.1314L75.1804 40.1404L73.8958 40.1501L58.7025 40.2448C58.6852 39.7643 58.6758 39.2839 58.6758 38.7987Z" fill="#DE0D6B"/>
<path d="M112.697 73.3965V76.9427C112.697 87.6416 109.392 98.1001 103.2 106.996C97.0084 115.892 88.2079 122.825 77.9116 126.919C67.6152 131.013 56.2855 132.084 45.355 129.997C34.4245 127.91 24.3842 122.758 16.5038 115.192C8.62345 107.627 3.25685 97.9884 1.08269 87.4951C-1.09147 77.0018 0.0244621 66.1252 4.28936 56.2408C8.55427 46.3563 15.7766 37.908 25.043 31.964C34.3095 26.0201 45.2038 22.8475 56.3485 22.8475L57.5726 22.8613C55.2194 27.8707 54.0068 33.3045 54.0155 38.7997C54.0155 39.3119 54.0256 39.82 54.0486 40.3274C46.9902 40.7361 40.1884 43.0168 34.3999 46.9158C28.6115 50.8148 24.0634 56.1791 21.2617 62.4119C18.4601 68.6447 17.5148 75.5016 18.5309 82.2194C19.5471 88.9373 22.4849 95.2528 27.0175 100.463C31.5501 105.674 37.4997 109.574 44.2043 111.732C50.9089 113.889 58.1055 114.219 64.9934 112.683C71.8813 111.148 78.1904 107.808 83.2186 103.035C88.2469 98.2617 91.7971 92.2431 93.4742 85.6484H56.3485V68.2363H68.1049C74.1706 73.2376 81.6463 76.3978 89.5847 77.3164C97.5231 78.2351 105.567 76.8708 112.697 73.3965Z" fill="white"/>
<path d="M94.4282 4.47504C89.7357 4.47223 85.0885 5.35673 80.752 7.07806C76.4156 8.79938 72.4747 11.3238 69.1546 14.5072C65.8344 17.6906 63.1998 21.4707 61.4014 25.6315C59.6029 29.7924 58.6757 34.2525 58.6728 38.7574C58.6728 38.7712 58.6728 38.7857 58.6728 38.8002C58.6728 39.2841 58.6822 39.768 58.7059 40.2463C59.0017 46.9669 61.348 53.4559 65.4533 58.907C69.5586 64.3581 75.242 68.531 81.7971 70.9071C88.3522 73.2832 95.4901 73.7579 102.324 72.2721C109.158 70.7863 115.386 67.4055 120.235 62.5499C125.084 57.6942 128.34 51.5778 129.598 44.9605C130.856 38.3433 130.061 31.517 127.312 25.3299C124.562 19.1428 119.98 13.8676 114.134 10.1599C108.287 6.45219 101.435 4.47535 94.4282 4.47504ZM94.4231 55.0877C91.0688 55.0866 87.7901 54.1308 85.0014 52.3411C82.2128 50.5515 80.0395 48.0083 78.7562 45.0331C77.4729 42.0579 77.1372 38.7842 77.7917 35.6259C78.4461 32.4676 80.0612 29.5665 82.4328 27.2892C84.8045 25.0119 87.8262 23.4608 91.1159 22.8319C94.4057 22.203 97.8158 22.5245 100.915 23.7558C104.015 24.9872 106.664 27.073 108.529 29.7497C110.394 32.4264 111.39 35.5738 111.392 38.794C111.393 40.9334 110.956 43.052 110.104 45.0289C109.252 47.0058 108.002 48.8021 106.427 50.3153C104.852 51.8284 102.981 53.0287 100.922 53.8476C98.8634 54.6665 96.6567 55.0879 94.4282 55.0877H94.4231Z" fill="#31BC98"/>
<path d="M94.4306 73.1199C114.199 73.1199 130.224 57.7532 130.224 38.7975C130.224 19.8417 114.199 4.47504 94.4306 4.47504C74.6624 4.47504 58.6371 19.8417 58.6371 38.7975C58.6371 57.7532 74.6624 73.1199 94.4306 73.1199Z" fill="white"/>
<path d="M84.6986 58.6155L75.3061 57.6443C76.3976 47.9175 74.7011 38.0892 70.3996 29.2204L78.9633 25.3929C83.9911 35.759 85.9742 47.2465 84.6986 58.6155Z" fill="#AE6CF8"/>
<path d="M98.5837 57.5447L89.1926 56.5624C89.2063 56.4407 90.5608 44.3464 89.9084 38.1106C89.5023 34.2257 88.2314 16.4866 88.2314 16.4866L97.6555 15.8645C97.6555 15.8693 98.9063 33.3706 99.3073 37.2036C100.06 44.3851 98.6442 57.011 98.5837 57.5447Z" fill="#AE6CF8"/>
<path d="M104.916 58.6207C104.214 52.4181 104.24 46.1594 104.992 39.9622C106.151 31.7992 108.265 28.188 108.676 27.5458L112.697 29.9252L116.766 32.227C116.751 32.2526 115.247 34.8746 114.363 41.1001C113.702 46.5938 113.683 52.1413 114.307 57.6391L104.916 58.6207Z" fill="#AE6CF8"/>
</svg>
