<svg width="961" height="293" viewBox="0 0 961 293" fill="none" xmlns="http://www.w3.org/2000/svg">
<path d="M205.908 129.868V129.999C195.77 136.02 184.193 139.187 172.402 139.163C160.612 139.14 149.047 135.928 138.933 129.868H205.908Z" fill="#DE0D6B"/>
<path d="M107.209 73.8435C107.19 63.3192 109.728 52.9479 114.604 43.6211L139.458 43.9145L153.603 44.0881H153.718C145.158 54.9617 142.344 63.5304 139.798 76.38L137.364 76.3971L135.017 76.4155L107.257 76.5958C107.226 75.6814 107.209 74.7671 107.209 73.8435Z" fill="#DE0D6B"/>
<path d="M205.908 139.689V146.438C205.907 166.801 199.869 186.705 188.556 203.636C177.243 220.566 161.164 233.762 142.352 241.554C123.539 249.346 102.839 251.385 82.8677 247.412C62.8967 243.44 44.5522 233.634 30.154 219.236C15.7558 204.837 5.95056 186.493 1.97818 166.522C-1.99421 146.551 0.0446946 125.85 7.83706 107.038C15.6294 88.2257 28.8253 72.1465 45.7559 60.8339C62.6865 49.5213 82.5915 43.4832 102.954 43.4832L105.19 43.5095C100.891 53.0435 98.6753 63.3851 98.6912 73.8437C98.6912 74.8186 98.7096 75.7855 98.7517 76.7512C85.8554 77.5291 73.4279 81.8698 62.8518 89.2904C52.2758 96.7111 43.966 106.921 38.8471 118.783C33.7283 130.645 32.0011 143.695 33.8577 156.481C35.7144 169.267 41.082 181.286 49.3635 191.203C57.6449 201.119 68.5154 208.544 80.7653 212.65C93.0151 216.756 106.164 217.382 118.749 214.46C131.334 211.538 142.861 205.181 152.048 196.097C161.235 187.013 167.722 175.558 170.786 163.007H102.954V129.868H124.434C135.517 139.387 149.175 145.401 163.68 147.15C178.184 148.898 192.88 146.301 205.908 139.689Z" fill="#AE6CF8"/>
<path d="M172.531 8.51515C163.957 8.50979 155.467 10.1932 147.543 13.4693C139.62 16.7453 132.42 21.5499 126.354 27.6086C120.287 33.6673 115.474 40.8616 112.188 48.7806C108.902 56.6996 107.208 65.1883 107.203 73.762C107.203 73.7883 107.203 73.8159 107.203 73.8435C107.203 74.7645 107.22 75.6854 107.263 76.5958C107.804 89.3865 112.091 101.736 119.591 112.111C127.092 122.486 137.476 130.428 149.453 134.95C161.43 139.472 174.471 140.376 186.957 137.548C199.443 134.72 210.823 128.286 219.682 119.044C228.542 109.803 234.491 98.162 236.789 85.5679C239.088 72.9739 237.636 59.982 232.612 48.2066C227.589 36.4311 219.216 26.3913 208.535 19.3347C197.853 12.2781 185.333 8.51573 172.531 8.51515ZM172.522 104.842C166.393 104.84 160.403 103.021 155.307 99.6149C150.212 96.2088 146.242 91.3686 143.897 85.7061C141.552 80.0436 140.939 73.8131 142.135 67.8021C143.33 61.7912 146.281 56.2696 150.614 51.9355C154.948 47.6014 160.469 44.6493 166.479 43.4523C172.49 42.2553 178.721 42.8673 184.384 45.2108C190.047 47.5543 194.888 51.5241 198.295 56.6185C201.702 61.7128 203.522 67.703 203.526 73.8317C203.528 77.9034 202.728 81.9357 201.172 85.6981C199.615 89.4605 197.332 92.8793 194.454 95.7592C191.576 98.6391 188.158 100.924 184.396 102.482C180.635 104.04 176.603 104.842 172.531 104.842H172.522Z" fill="#31BC98"/>
<path d="M343.068 203.42C336.227 232.011 313.335 249.381 282.813 249.381C244.94 249.381 219.368 222.614 219.368 183.032C219.368 143.563 244.654 116.968 282.123 116.968C319.199 116.968 343.631 143.051 343.631 182.861C343.645 185.961 343.493 189.06 343.174 192.144H252.344C254.508 210.937 266.012 222.102 283.787 222.102C297.115 222.102 306.056 215.837 311.067 203.42H343.068ZM310.889 171.072C308.042 153.132 298.304 143.792 282.301 143.792C266.012 143.792 255.475 153.701 252.685 171.072H310.889Z" fill="#AE6CF8"/>
<path d="M473.326 120.381L431.064 245.959H383.795L341.993 120.381H377.878L407.897 224.207L438.253 120.383L473.326 120.381Z" fill="#AE6CF8"/>
<path d="M595.219 203.42C588.378 232.011 565.486 249.381 534.964 249.381C497.091 249.381 471.521 222.614 471.521 183.032C471.521 143.563 496.807 116.968 534.276 116.968C571.351 116.968 595.785 143.051 595.785 182.861C595.798 185.961 595.646 189.06 595.328 192.144H504.494C506.658 210.937 518.163 222.102 535.937 222.102C549.264 222.102 558.203 215.837 563.215 203.42H595.219ZM563.04 171.072C560.193 153.132 550.455 143.792 534.451 143.792C518.163 143.792 507.626 153.701 504.836 171.072H563.04Z" fill="#AE6CF8"/>
<path d="M641.871 245.959H607.755V120.381H641.871V158.139C647.166 131.544 662.714 116.96 686.008 116.96C713.06 116.96 727.696 136.666 727.696 173.006V245.961H693.582V178.7C693.582 157.285 685.557 146.635 669.207 146.635C651.78 146.635 641.871 158.476 641.871 180.066V245.959Z" fill="#AE6CF8"/>
<path d="M793.946 249.321C766.325 249.321 751.857 232.974 751.857 201.024V147.491H736.142V120.381H751.861V91.4492H785.975V120.381H822.085V147.491H785.971V201.077C785.971 215.486 791.042 221.864 802.66 221.864C807.329 221.864 813.537 220.839 822.081 218.675V244.987C812.936 247.67 803.475 249.127 793.946 249.321Z" fill="#AE6CF8"/>
<path d="M960.025 120.381L912.072 249.492C901.137 279.334 882.855 292.547 852.899 292.547C846.865 292.526 840.844 291.992 834.901 290.951V263.387C839.35 264.067 843.842 264.429 848.343 264.47C861.782 264.47 870.438 260.26 876.192 250.346L828.698 120.381H864.576L894.534 219.471L924.946 120.374L960.025 120.381Z" fill="#AE6CF8"/>
<path d="M172.531 139.161C208.65 139.161 237.93 109.915 237.93 73.8382C237.93 37.7613 208.65 8.51514 172.531 8.51514C136.413 8.51514 107.133 37.7613 107.133 73.8382C107.133 109.915 136.413 139.161 172.531 139.161Z" fill="#AE6CF8"/>
<path d="M154.752 111.56L137.591 109.712C139.585 91.1994 136.486 72.494 128.626 55.6147L144.273 48.3301C153.459 68.0591 157.083 89.9224 154.752 111.56Z" fill="white"/>
<path d="M180.123 109.522L162.965 107.652C162.99 107.421 165.465 84.4028 164.273 72.5346C163.531 65.1408 161.208 31.3794 161.208 31.3794L178.427 30.1953C178.427 30.2045 180.713 63.5134 181.445 70.8085C182.82 84.4764 180.234 108.506 180.123 109.522Z" fill="white"/>
<path d="M191.688 111.567C190.407 99.7624 190.453 87.8508 191.828 76.0562C193.945 60.5201 197.807 53.6473 198.56 52.425L205.906 56.9534L213.341 61.3344C213.313 61.3831 210.565 66.3732 208.949 78.2217C207.742 88.6776 207.708 99.2357 208.847 109.699L191.688 111.567Z" fill="white"/>
</svg>
